<svg xmlns="http://www.w3.org/2000/svg" fill="none" viewBox="0 0 24 24" stroke-width="1.5" stroke="currentColor" class="w-6 h-6">
  <path stroke-linecap="round" stroke-linejoin="round" d="M11.42 15.17L17.25 21A2.25 2.25 0 0021 17.25l-5.82-5.82m-4.5 4.5L12.75 12.75M11.42 15.17L12.75 12.75M11.42 15.17l-3.15 2.625c-.791.521-1.813.145-2.28-.942l-.834-1.943c-.466-1.087-.09-2.381.942-2.85l3.15-1.35m0 4.5l-3.15-2.625m0 0L3.04 9.867m0 0c-.791-.521-1.813-.145-2.28.942l-.834 1.943c-.466 1.087-.09 2.381.942 2.85l3.15 1.35m0-4.5l-3.15 2.625" />
</svg>
